<svg xmlns="http://www.w3.org/2000/svg" viewBox="0 0 134 26"><path d="M36.1 4.9v2.5h4v11h3v-11h4.1V4.9H36.1zm51.7 0v13.5h5.8c4.1 0 6.1-2.9 6.1-6.8 0-4.5-2.6-6.7-6.1-6.7h-5.8zm33.6 0v13.6h2.7v-3.4l1-1 2.7 4.4h3.3l-4.1-6.2 3.7-3.6h-3.2l-3.4 3.5V4.9h-2.7zM82 5.7v3h-1.7v1.8h1.6v5.8c0 1.9 1.4 2.3 3.1 2.3.6 0 1.1 0 1.6-.1v-2.1c-.2.1-.5.1-.8.1-.9 0-1.1-.2-1.1-1.1v-4.9h2V8.7h-2v-3H82zm8.9 1.7H93c2.9 0 3.9 1.8 3.9 4.5 0 3-1.7 4.1-3.4 4.1h-2.6V7.4zm-25.8.9c-3 0-5 2.3-5 5.2 0 3.1 1.9 5.2 5 5.2 2.2 0 3.8-1 4.6-3.3h-2.4c-.1.6-1 1.3-2.1 1.3-1.5 0-2.3-.8-2.4-2.5v-.1h7.1c.2-3-1.5-5.8-4.8-5.8zm10.5 0c-3 0-5 2.3-5 5.2 0 3.1 1.9 5.2 5 5.2 2.2 0 3.8-1 4.6-3.3h-2.4c-.1.6-1 1.3-2.1 1.3-1.5 0-2.3-.8-2.4-2.5v-.1h7.1c.2-3-1.5-5.8-4.8-5.8zm29.9 0c-3 0-5 2.3-5 5.2 0 3.1 1.9 5.2 5 5.2 2.2 0 3.8-1 4.6-3.3h-2.4c-.1.6-1 1.3-2.1 1.3-1.5 0-2.3-.8-2.4-2.5v-.1h7.1c.2-3-1.5-5.8-4.8-5.8zm10.3.1c-3.2 0-5 2.2-5 5.3 0 2.9 1.9 5 4.9 5 2.6 0 4.3-1.4 4.7-4h-2.6c-.1 1.2-.8 2-2.1 2-1.6 0-2.2-1.7-2.2-3.1 0-1.5.6-3.2 2.3-3.2 1.2 0 1.8.6 2 1.7h2.6c-.1-2.5-2.3-3.7-4.6-3.7zm-70.6.3l3.1 9.8h2.8l1.7-6.6 1.7 6.6h2.8l3-9.8h-2.8l-1.8 6.6L54 8.7h-2.6l-1.6 6.7L48 8.7h-2.8zm19.9 1.7c1.3 0 1.9.7 2.1 2.1h-4.3c0-.8.5-2.1 2.2-2.1zm10.5 0c1.3 0 1.9.7 2.1 2.1h-4.3c0-.8.5-2.1 2.2-2.1zm29.8 0c1.3 0 1.9.7 2.1 2.1h-4.3c0-.8.5-2.1 2.2-2.1z" fill="#fff"/><path d="M3.6.1C1.7.1.2 1.7.2 3.5v.77h25.2V3.6c0-1.9-1.5-3.5-3.4-3.5z" fill="#e0245e"/><path d="M.2 4v4.104h25.2V4z" fill="#f98e00"/><path d="M.2 7.9v4.172h25.2V7.9z" fill="#ffd03f"/><path d="M.2 11.8v4.238h25.2V11.8z" fill="#17bf63"/><path d="M.2 15.7V19c0 .206.026.472.062.667h25.076c.037-.196.062-.463.062-.667v-3.3z" fill="#1da1f2"/><path d="M.262 19.532C.556 21.137 1.995 22.4 3.6 22.4h5.7l3.4 3.4 3.4-3.4H22c1.685 0 3.05-1.328 3.338-2.868z" fill="#794bc4"/><path d="M9.7 18.6c6.3 0 9.8-5.2 9.8-9.8v-.4c.7-.5 1.3-1.1 1.7-1.8-.6.3-1.3.5-2 .5.7-.4 1.3-1.1 1.5-1.9-.7.4-1.4.7-2.2.8-.6-.7-1.5-1.1-2.5-1.1-1.9 0-3.4 1.5-3.4 3.4 0 .3 0 .5.1.8C9.8 9 7.3 7.6 5.6 5.5c-.3.6-.5 1.1-.5 1.8 0 1.2.6 2.2 1.5 2.9-.6 0-1.1-.2-1.6-.4 0 1.7 1.2 3.1 2.8 3.4-.3.1-.6.1-.9.1-.2 0-.4 0-.6-.1.4 1.4 1.7 2.4 3.2 2.4-1.2.9-2.7 1.5-4.3 1.5h-.8c1.4.9 3.3 1.5 5.3 1.5" fill="#fff"/></svg>